<svg xmlns="http://www.w3.org/2000/svg" viewBox="0 0 1200 1500" width="1200" height="1500"><rect width="1200" height="1500" fill="#f1f5f9"/><rect width="1200" height="90" fill="#1d3557"/><rect x="40" y="30" width="180" height="30" rx="8" fill="#a8dadc"/><rect x="900" y="30" width="260" height="30" rx="15" fill="#457b9d"/><rect x="60" y="150" width="340" height="150" rx="16" fill="#fff"/><rect x="90+0" y="0" width="0" height="0"/><rect x="90" y="185" width="140" height="18" rx="9" fill="#cbd5e1"/><rect x="90" y="225" width="220" height="40" rx="10" fill="#2a9d8f"/><rect x="440" y="150" width="340" height="150" rx="16" fill="#fff"/><rect x="90+0" y="0" width="0" height="0"/><rect x="470" y="185" width="140" height="18" rx="9" fill="#cbd5e1"/><rect x="470" y="225" width="220" height="40" rx="10" fill="#e76f51"/><rect x="820" y="150" width="340" height="150" rx="16" fill="#fff"/><rect x="90+0" y="0" width="0" height="0"/><rect x="850" y="185" width="140" height="18" rx="9" fill="#cbd5e1"/><rect x="850" y="225" width="220" height="40" rx="10" fill="#7b2cbf"/><rect x="60" y="340" width="1080" height="400" rx="20" fill="#fff"/><g transform="translate(0,340)"><rect x="80" y="480" width="90" height="140" rx="10" fill="#a8dadc"/><rect x="230" y="360" width="90" height="260" rx="10" fill="#457b9d"/><rect x="380" y="420" width="90" height="200" rx="10" fill="#a8dadc"/><rect x="530" y="240" width="90" height="380" rx="10" fill="#1d3557"/><rect x="680" y="300" width="90" height="320" rx="10" fill="#457b9d"/><rect x="830" y="170" width="90" height="450" rx="10" fill="#e63946"/><rect x="980" y="320" width="90" height="300" rx="10" fill="#457b9d"/><rect x="1130" y="370" width="90" height="250" rx="10" fill="#a8dadc"/></g><rect x="60" y="780" width="1080" height="640" rx="20" fill="#fff"/><rect x="100" y="830" width="400" height="26" rx="13" fill="#cbd5e1"/></svg>